<svg xmlns="http://www.w3.org/2000/svg" xmlns:xlink="http://www.w3.org/1999/xlink" viewBox="0 0 64 64" id="online-curriculum"><defs><linearGradient id="a" x1="32" x2="32" y1="65.125" y2="-.933" gradientUnits="userSpaceOnUse"><stop offset="0" stop-color="#e93e3a"></stop><stop offset=".35" stop-color="#ed683c"></stop><stop offset=".7" stop-color="#f3903f"></stop><stop offset="1" stop-color="#fdc70c"></stop></linearGradient><linearGradient id="b" x1="17" x2="17" y1="65.125" y2="-.933" xlink:href="#a"></linearGradient><linearGradient id="c" x1="24" x2="24" y1="65.125" y2="-.933" xlink:href="#a"></linearGradient><linearGradient id="d" x1="22" x2="22" y1="65.125" y2="-.933" xlink:href="#a"></linearGradient><linearGradient id="e" x1="46" x2="46" y1="65.125" y2="-.933" xlink:href="#a"></linearGradient><linearGradient id="f" x1="18" x2="18" y1="65.125" y2="-.933" xlink:href="#a"></linearGradient><linearGradient id="g" x1="39" x2="39" y1="65.125" y2="-.933" xlink:href="#a"></linearGradient></defs><path fill="url(#a)" d="M47 2H17a7.008 7.008 0 0 0-7 7v46a7.008 7.008 0 0 0 7 7h30a7.008 7.008 0 0 0 7-7V9a7.008 7.008 0 0 0-7-7Zm-5 2h4v4.59l-1.29-1.3a1.008 1.008 0 0 0-1.42 0L42 8.59Zm10 51a5 5 0 0 1-5 5H17a5 5 0 0 1-5-5V9a5 5 0 0 1 5-5h23v7a.987.987 0 0 0 .62.92 1 1 0 0 0 1.09-.21L44 9.41l2.29 2.3A1.007 1.007 0 0 0 47 12a.838.838 0 0 0 .38-.08A.987.987 0 0 0 48 11V4.1A5.017 5.017 0 0 1 52 9Z"></path><path fill="url(#a)" d="M39.06 37.71 36 36.35v-2.61A7.073 7.073 0 0 0 38.71 30H39a3 3 0 0 0 0-6v-2a7 7 0 0 0-14 0v2a3 3 0 0 0 0 6h.29A7.073 7.073 0 0 0 28 33.74v2.61l-3.07 1.36A10.01 10.01 0 0 0 19 46.85V48a1 1 0 0 0 1 1h24a1 1 0 0 0 1-1v-1.15a10 10 0 0 0-5.94-9.14ZM39 26a1 1 0 0 1 0 2Zm-14 2a1 1 0 0 1 0-2Zm11.8 10.89-.46 2.3-1.65-1.32.78-1.57ZM27 22a5 5 0 0 1 10 0v.07a7.718 7.718 0 0 0-1-.07 10.362 10.362 0 0 0-4.39 1.08A8.622 8.622 0 0 1 28 24a5.022 5.022 0 0 1-1-.09Zm0 6v-2.07a7.718 7.718 0 0 0 1 .07 10.362 10.362 0 0 0 4.39-1.08A8.622 8.622 0 0 1 36 24a5.022 5.022 0 0 1 1 .09V28a5 5 0 0 1-10 0Zm7 6.71v2.05l-2 4-2-4v-2.05a7.042 7.042 0 0 0 4 0Zm-5.47 3.59.78 1.56-1.65 1.33-.46-2.3ZM43 47H21v-.15a8 8 0 0 1 4.33-7.09l.69 3.44a1 1 0 0 0 .64.74.974.974 0 0 0 .34.06 1 1 0 0 0 .62-.22l2.61-2.09.88 1.76a1 1 0 0 0 1.78 0l.88-1.76 2.61 2.09A1 1 0 0 0 37 44a.974.974 0 0 0 .34-.06 1 1 0 0 0 .64-.74l.69-3.44A8 8 0 0 1 43 46.85Z"></path><path fill="url(#b)" d="M16 8h2v2h-2z"></path><path fill="url(#c)" d="M20 8h8v2h-8z"></path><path fill="url(#d)" d="M16 12h12v2H16z"></path><path fill="url(#e)" d="M44 18h4v2h-4zM44 22h4v2h-4z"></path><path fill="url(#f)" d="M16 18h4v2h-4zM16 22h4v2h-4z"></path><path fill="url(#g)" d="M34 52h10v2H34z"></path></svg>